<svg xmlns="http://www.w3.org/2000/svg" xmlns:xlink="http://www.w3.org/1999/xlink" width="48" height="48.0009765625" viewBox="0 0 48 48.0009765625" fill="none">
<path d="M48 24.0001C48 28.5818 46.713 32.865 44.4891 36.5097C44.103 37.1429 43.686 37.7504 43.2484 38.3424C42.9241 38.7749 42.5894 39.1918 42.2342 39.5985C41.3127 40.6796 40.2934 41.6732 39.1969 42.5792C38.8366 42.8727 38.4659 43.161 38.0849 43.4338C37.879 43.5882 37.668 43.7375 37.4517 43.8817C37.0811 44.1288 36.7053 44.3707 36.3192 44.5973C36.2471 44.6487 36.1699 44.6899 36.0927 44.7362C36.0154 44.7826 35.9331 44.8289 35.8507 44.8752C35.0888 45.3128 34.2909 45.7041 33.4775 46.0541C31.7632 46.7954 29.9408 47.336 28.0463 47.6552C27.8353 47.6963 27.6293 47.7272 27.4183 47.7581C26.8829 47.8353 26.3423 47.892 25.7967 47.9332C25.74 47.9383 25.6834 47.9435 25.6268 47.9435C25.251 47.9692 24.8649 47.9846 24.4788 47.9898C24.3192 48.0001 24.1596 48.0001 24 48.0001C22.0644 48.0001 20.175 47.7684 18.3732 47.336C16.906 46.9859 15.4955 46.4969 14.1467 45.8791C13.0759 45.4055 12.0463 44.8444 11.0631 44.2163C10.6976 43.9846 10.3372 43.7375 9.98198 43.4801C9.56499 43.1816 9.1583 42.8675 8.7619 42.5329C7.72716 41.6886 6.76448 40.7517 5.88417 39.7375C5.68855 39.511 5.49807 39.2845 5.31274 39.0529C5.11197 38.8058 4.91634 38.5535 4.72587 38.2961C4.6435 38.188 4.56628 38.085 4.48906 37.9769C3.85586 37.0966 3.28443 36.17 2.77477 35.2021C2.56885 34.8212 2.37838 34.43 2.1982 34.0387C0.782497 30.9808 0 27.578 0 24.0001C0 10.744 10.7439 0.00012207 24 0.00012207C37.2561 0.00012207 48 10.744 48 24.0001Z"   fill="#EDF3FC" >
</path>
<path d="M38.0849 43.434C37.879 43.5884 37.6679 43.7377 37.4517 43.8818C37.009 44.1804 36.556 44.4687 36.0926 44.7364C33.4775 46.2654 30.5482 47.3104 27.4183 47.7583C27.269 47.7789 27.1197 47.7995 26.9652 47.8149C26.1673 47.9179 25.3539 47.9745 24.5251 47.9899L24.4787 47.9899C24.3192 48.0002 24.1596 48.0002 24 48.0002C22.0643 48.0002 20.175 47.7686 18.3732 47.3361C15.7426 46.7029 13.2767 45.6373 11.063 44.2164C10.26 43.7068 9.4929 43.1457 8.76188 42.5331C7.72714 41.6888 6.76446 40.7518 5.88415 39.7377C5.68853 39.5112 5.49805 39.2847 5.31272 39.053C5.00899 34.9398 8.88029 30.9758 9.57012 30.1676C11.7889 27.5421 18.0283 26.08 24.1544 26.2551C24.1544 26.2551 32.4993 26.2242 35.9742 29.9359C37.5032 31.5678 38.0128 37.3851 38.0849 43.434Z"   fill="#92B4EA" >
</path>
<path d="M10.296 29.4622L9.98199 43.4802C9.565 43.1816 9.15831 42.8676 8.76191 42.5329C7.72716 41.6887 6.76449 40.7517 5.88418 39.7376C5.68855 39.5111 5.49808 39.2845 5.31275 39.0529C5.11198 38.8058 4.91635 38.5535 4.72587 38.2961C4.64351 38.188 4.56629 38.0851 4.48907 37.977C3.85586 37.0966 3.28443 36.17 2.77478 35.2022C5.83784 32.2627 10.296 29.4622 10.296 29.4622Z"   fill="#92B4EA" >
</path>
<path d="M42.2343 39.5986C41.3128 40.6797 40.2935 41.6733 39.197 42.5793C38.8366 42.8727 38.4659 43.161 38.085 43.4339C37.8791 43.5883 37.668 43.7376 37.4518 43.8817C37.354 43.9487 37.251 44.0156 37.1532 44.0774C37.0296 44.1597 36.9061 44.2421 36.7825 44.3142C36.556 44.4635 36.3244 44.6025 36.0927 44.7363C35.2536 45.2305 34.3784 45.6681 33.4775 46.0542L30.4968 43.5986L36.1802 30.1675L42.2343 39.5986Z"   fill="#92B4EA" >
</path>
<path d="M19.5779 21.9102L19.1866 26.7235C19.1866 26.7235 19.5161 28.1856 22.6667 28.7004C25.0142 29.0865 26.296 27.6656 26.296 27.6656L26.2549 26.6257L26.1467 23.923L20.52 22.1984L19.5779 21.9102Z"   fill="#F48462" >
</path>
<path d="M20.5251 22.2035C20.5251 22.3528 20.5714 22.533 20.6384 22.7389C21.6319 25.5445 24.9009 26.3991 26.2548 26.6308L26.1467 23.9281L20.5251 22.2035Z"   fill="#000000" >
</path>
<path d="M28.3604 11.6656C28.3604 11.6656 30.6564 18.6926 29.2253 22.3786C27.7993 26.0645 24.4016 25.1328 22.4093 24.201C20.417 23.2692 19.5779 21.9101 19.5779 21.9101C19.5779 21.9101 17.5856 22.3786 16.4685 20.4584C15.3514 18.5382 16.3449 16.5562 17.4929 16.1907C18.6409 15.8252 19.8713 16.7467 19.8713 16.7467L19.0322 14.6875C19.0322 14.6875 24.3141 5.14822 28.3604 11.6656Z"   fill="#F48462" >
</path>
<path d="M27.2433 20.2473C27.2073 20.2473 27.1764 20.2421 27.1403 20.2267C27.0116 20.17 26.9499 20.0207 27.0065 19.8869C27.511 18.708 26.7285 17.2872 26.7233 17.2717C26.6564 17.1482 26.6976 16.9886 26.8212 16.9217C26.9447 16.8547 27.1043 16.8959 27.1712 17.0195C27.2073 17.0864 28.0824 18.672 27.4801 20.0877C27.4389 20.1855 27.3411 20.2421 27.2433 20.2421L27.2433 20.2473Z"   fill="#000000" >
</path>
<path d="M19.2844 19.8714C19.2227 19.8714 19.1609 19.8457 19.1197 19.7891L17.4878 17.6578C17.4209 17.5703 17.4363 17.4416 17.5238 17.3695C17.6113 17.2974 17.74 17.318 17.8121 17.4055L19.444 19.5368C19.511 19.6243 19.4955 19.753 19.408 19.8251C19.372 19.856 19.3256 19.8663 19.2844 19.8663L19.2844 19.8714Z"   fill="#000000" >
</path>
<path d="M17.4003 19.1508C17.2922 19.1508 17.1995 19.0633 17.1944 18.9552C17.1892 18.8419 17.2767 18.7441 17.39 18.739L18.677 18.6772C18.7954 18.6669 18.8881 18.7595 18.8932 18.8728C18.8984 18.9861 18.8108 19.0839 18.6976 19.089L17.4106 19.1508C17.4106 19.1508 17.4054 19.1508 17.4003 19.1508Z"   fill="#000000" >
</path>
<path d="M24.4479 17.4159C24.3089 17.4159 24.1956 17.3026 24.1905 17.1636L24.1596 15.8921C24.1596 15.7479 24.2677 15.6347 24.4119 15.6295C24.5509 15.6295 24.6693 15.7376 24.6744 15.8818L24.7053 17.1533C24.7053 17.2975 24.5972 17.4107 24.453 17.4159L24.4479 17.4159Z"   fill="#000000" >
</path>
<path d="M28.2059 17.5034C28.0669 17.5034 27.9537 17.3953 27.9485 17.2563L27.8919 15.9848C27.8868 15.8406 27.9949 15.7222 28.139 15.7171C28.2831 15.7068 28.4016 15.82 28.4067 15.9642L28.4633 17.2357C28.4685 17.3799 28.3604 17.4983 28.2162 17.5034C28.2162 17.5034 28.2111 17.5034 28.2059 17.5034Z"   fill="#000000" >
</path>
<path d="M23.825 15.0324C23.7735 15.0324 23.722 15.017 23.6809 14.9861C23.5625 14.9037 23.5367 14.7441 23.6139 14.6257C24.206 13.7763 25.3231 14.1624 25.3694 14.183C25.5033 14.2293 25.5702 14.3786 25.5239 14.5125C25.4775 14.6463 25.3282 14.7184 25.1944 14.6669C25.1635 14.6566 24.3964 14.3941 24.0309 14.9192C23.9795 14.9912 23.9022 15.0324 23.8199 15.0324L23.825 15.0324Z" fill-rule="evenodd"  fill="#000000" >
</path>
<path d="M28.7362 15.0272C28.6487 15.0272 28.5663 14.986 28.5148 14.9036C28.4582 14.8109 28.2574 14.5638 28.0206 14.5175C27.8919 14.4918 27.7581 14.5278 27.6191 14.6256C27.5058 14.708 27.3411 14.6771 27.2587 14.5638C27.1763 14.4454 27.2021 14.2858 27.3205 14.2035C27.5779 14.0233 27.8559 13.9564 28.1236 14.013C28.6229 14.116 28.9164 14.5793 28.9524 14.6359C29.0245 14.7595 28.9884 14.9139 28.8649 14.9911C28.8237 15.0169 28.7774 15.0272 28.731 15.0272L28.7362 15.0272Z" fill-rule="evenodd"  fill="#000000" >
</path>
<path d="M28.3604 11.6707L27.9279 11.0375C27.9279 11.0375 27.3925 11.403 26.2085 11.6553C24.3861 12.0516 22.2445 11.9384 22.2445 11.9384C22.2445 11.9384 22.6049 12.4583 22.5225 14.3425C22.4402 16.2267 20.4839 17.2769 20.4839 17.2769C19.7941 16.793 19.2175 16.5201 18.7284 16.3708C18.5174 16.309 18.3321 16.273 18.157 16.2524C17.0296 16.1392 16.6075 16.8393 16.6075 16.8393C16.6075 16.8393 14.0077 12.7003 17.0142 9.72475C19.1197 7.65011 21.9408 7.77881 23.4389 8.05165C23.9485 8.14432 24.2986 8.25242 24.4273 8.28846C24.4633 8.29876 24.4788 8.3039 24.4788 8.3039C24.4788 8.3039 28.9781 7.23827 29.7246 7.90236C30.4711 8.5613 28.9061 11.6964 28.3604 11.6707Z"   fill="#000000" >
</path>
<path   fill-rule="evenodd"  fill="#000000"  d="M25.7555 22.1777C25.5804 22.1777 25.39 22.1468 25.1943 22.0696C24.9369 21.9615 24.7516 21.7865 24.6589 21.56C24.4994 21.1584 24.6795 20.7466 24.7001 20.7003C24.731 20.6385 24.7825 20.587 24.8494 20.5664C24.9163 20.5407 24.9884 20.5458 25.0502 20.5767L26.7284 21.4107C26.8057 21.4519 26.8623 21.5291 26.8674 21.6166C26.8777 21.7041 26.8365 21.7916 26.7645 21.8483C26.7439 21.8637 26.3115 22.1829 25.7503 22.1829L25.7555 22.1777ZM25.112 21.179C25.112 21.2408 25.112 21.3077 25.1429 21.3695C25.184 21.4673 25.2613 21.5394 25.39 21.5909C25.6165 21.6835 25.8378 21.6732 26.0232 21.632L25.112 21.179Z">
</path>
<path d="M26.9653 47.8149C26.1673 47.9178 25.354 47.9744 24.5251 47.9899L22.7388 28.9371L24.4942 29.3953L26.9653 47.8149Z"   fill="#A2C5F9" >
</path>
<path d="M26.3732 26.4763C26.3732 26.4763 28.417 32.1597 27.8198 32.0773C27.2227 31.995 23.547 29.0658 23.547 29.0658C23.547 29.0658 21.1429 32.3759 20.3037 32.4377C19.4646 32.4995 19.1918 26.5175 19.1918 26.5175C19.1918 26.5175 19.825 28.2112 22.9601 28.4943C26.0952 28.7775 26.3732 26.4763 26.3732 26.4763Z"   fill="#E6F4FF" >
</path>
<path d="M36.3192 44.5973C36.2471 44.6488 36.1699 44.6899 36.0927 44.7363C36.0154 44.7826 35.9331 44.8289 35.8507 44.8753L33.7967 35.2537C33.7709 35.1147 33.8584 34.9808 33.9974 34.9499C34.1364 34.919 34.2703 35.0066 34.3012 35.1455L36.3192 44.5973Z"   fill="#E6F4FF" >
</path>
</svg>
